PathFileType	4	(X/Y/Z)	Patient4_TMGait_0pt3_02_left_03.trc.trc
DataRate	CameraRate	NumFrames	NumMarkers	Units	OrigDataRate	OrigDataStartFrame	OrigNumFrames
49.469964664311	49.469964664311	4	33	mm	49.469964664311	124	       141
Frame#	Time	Sacral			L.Shoulder			Chest			R.Shoulder			Neck			R.ASIS			L.ASIS			R.Thigh.Superior			R.Thigh.Lateral			R.Thigh.Inferior			R.Patella			L.Thigh.Superior			L.Thigh.Lateral			L.Thigh.Inferior			L.Patella			L.Shank.Superior			L.Shank.Lateral			L.Shank.Inferior			R.Shank.Superior			R.Shank.Lateral			R.Shank.Inferior			R.Heel			R.Midfoot.Superior			R.Midfoot.Lateral			R.Toe			L.Heel			L.Midfoot.Lateral			L.Midfoot.Superior			L.Toe			L.Elbow			L.Wrist			R.Elbow			R.Wrist			
		X1	Y1	Z1	X2	Y2	Z2	X3	Y3	Z3	X4	Y4	Z4	X5	Y5	Z5	X6	Y6	Z6	X7	Y7	Z7	X8	Y8	Z8	X9	Y9	Z9	X10	Y10	Z10	X11	Y11	Z11	X12	Y12	Z12	X13	Y13	Z13	X14	Y14	Z14	X15	Y15	Z15	X16	Y16	Z16	X17	Y17	Z17	X18	Y18	Z18	X19	Y19	Z19	X20	Y20	Z20	X21	Y21	Z21	X22	Y22	Z22	X23	Y23	Z23	X24	Y24	Z24	X25	Y25	Z25	X26	Y26	Z26	X27	Y27	Z27	X28	Y28	Z28	X29	Y29	Z29	X30	Y30	Z30	X31	Y31	Z31	X32	Y32	Z32	X33	Y33	Z33	

124	7.686357142857	699.898799156345	1005.443667813170	589.922847804944	856.602823768305	1412.119489174701	359.184359558140	989.054830671547	1344.922878175574	497.935304424340	950.313892029822	1434.577737049111	678.646022782928	877.942375591556	1481.969974883190	510.141656104948	938.959248740103	922.952159119379	664.033624341994	881.594137659444	951.478288879613	395.480263594922	935.346679676151	711.746175272140	623.936761072659	840.572343005188	611.526401454097	687.519446916738	895.145045817859	553.053305971421	597.252062111215	876.792119839977	463.595506329319	599.541065315926	952.843233859986	760.151209870554	417.472060882503	885.406919894502	637.189275233783	345.074463047943	985.360507436041	571.561166955506	403.264654381364	1006.690343890749	511.126002884052	402.155034815863	994.380580532364	441.338537042944	389.038809891520	937.239252393519	310.257519994619	329.893437579126	1027.105042816398	213.030532143264	385.661521361871	828.289369508997	382.473774563801	606.034271418688	738.851583092799	293.285355414853	667.328065440311	754.023576771670	195.994075915490	598.628251951983	588.989762696081	47.629162528703	565.246578047282	761.371614604711	96.043137305758	604.999401161570	669.884350174383	38.654693113185	641.639737259123	878.143682534864	39.065200205768	639.089756343430	944.564369617847	35.726941065639	410.235523930846	1026.599901342261	40.102890361657	338.244334590233	1096.357390415504	115.042912519914	368.701163587338	1231.344426952825	83.017935304977	356.133324042675	695.628789251399	1091.853926134631	297.048110540722	654.856490094237	835.610694475566	332.875339277409	1137.015391498934	1163.345205482635	796.774450708386	1363.241847008183	1239.800602663071	708.684731681663	
125	7.706571428571	701.320609025523	1004.167538028970	586.765948032059	857.670587432642	1410.006656480760	354.471021816926	990.334311059563	1343.355268944447	493.406097659915	951.424030781084	1433.695214947501	673.672942736047	878.834691054493	1480.442031826334	505.244351394140	940.572303622534	921.717002732413	661.364340687309	883.039978946194	949.631581804687	392.762588536412	935.548043082005	710.177822506249	621.900893176280	839.635622525871	610.755976833153	685.652529555472	893.641186923848	551.543768956411	595.749541625458	874.145920900184	462.215064308995	598.157990673821	954.029656289009	757.862000389571	414.551769651706	884.980659386412	634.846966481112	343.453313800710	985.263566470667	569.731442741898	401.282525651081	1005.510542250229	509.071686370593	400.788022806919	993.820655397243	439.131236673818	387.751017611591	936.418128432836	308.080711028000	329.587899267248	1026.099137411054	211.125842854830	385.614951749232	824.997170584485	381.470987334068	604.938279194383	734.762264753117	293.311209071826	666.762063139052	748.996087045962	195.676921203867	598.308197163609	582.970831796070	48.066611983677	565.320849733618	755.524891118818	96.166451971455	605.111459632282	663.869467600654	38.829022292109	641.690737250824	872.166526725534	38.952097366666	639.108176769092	942.360535007358	35.850661764934	411.021779773081	1024.178219958782	39.203198104776	338.684914024962	1095.200169215829	112.465244012150	369.388027299183	1229.467856749090	78.065312057270	356.352799505101	698.889520969212	1088.489062686866	293.888217295745	659.209609487677	832.056043258612	330.824493386148	1143.148938990847	1166.965631448011	790.910689747643	1365.045034339152	1252.254892865368	700.363248049467	
126	7.726785714286	702.939456284983	1003.124275891606	583.334012381705	858.978066431058	1408.053051351313	349.508668184008	991.817236274933	1342.008260241252	488.685215388627	952.665618969670	1433.022899316373	668.521064156129	879.869456974186	1479.105489637999	500.081087424537	942.390153406846	920.705618127641	658.488437288710	884.804721718777	948.097082898919	389.838795091317	936.091679814297	708.785443885015	619.788011244745	839.026957086807	610.162613885037	683.639846169768	892.600439915686	550.198853671233	594.167770139201	872.015518143679	460.947730702196	596.733727276746	956.002572568750	756.305297099889	412.085309433907	886.160263595308	633.101148591205	341.966446070721	986.570358343544	568.567851302489	399.799062405781	1005.678073375195	507.274034938464	399.793488619573	994.231063017775	437.021889520626	386.760475866468	935.809745997365	306.476049673201	329.244652101752	1024.286531410059	209.088638658231	385.713369849212	822.089561245042	380.627280931486	603.815899684486	730.947394350914	293.636305685872	666.212908303246	744.179661486655	195.598923333762	598.065519857878	577.037893281444	48.931424284195	565.469660867645	749.848562572127	96.387894017771	605.325845554058	657.926551222180	39.211122570157	641.788684312950	866.240756253633	38.780171454288	639.138166135506	938.031320284605	36.193482734906	411.796835731742	1019.582685395409	38.326540682261	339.043002844833	1092.266860046553	109.546412021078	370.041427714042	1225.661152027124	72.209613888233	356.333808204433	703.192277783606	1084.830450592475	290.267142747811	664.887933378717	828.195287707607	328.003039263753	1148.380870063344	1170.136296718054	785.251965287856	1366.447798942743	1262.580487757886	692.605108218452	
127	7.747000000000	704.742271642586	1002.437823544318	579.613793244955	860.505628051819	1406.414030158828	344.372530583811	993.503968873235	1340.986122801421	483.801064014645	954.096345731064	1432.647374653592	663.236497510378	881.061251501448	1478.070723334173	494.737548569656	944.357570963237	920.005438500970	655.359675519928	886.861327171137	946.994103564457	386.666707982184	936.822494907832	707.651456341830	617.581640313964	838.595624613234	609.862522235265	681.509839099270	891.856010329471	549.109991966197	592.538281716536	870.236110811044	459.906199943258	595.326877341118	958.690794609020	755.571410214566	410.041094277272	888.875025916288	632.038465175991	340.528400327286	989.177154886960	568.089303279390	398.742508103515	1007.147063236626	505.838685678982	399.140982918834	995.616171911439	435.157100102919	386.063217294128	935.679454578806	305.475010286629	328.772429609280	1022.032567471291	207.078826860495	385.947277075177	819.444594503953	380.050483530441	602.719750004935	727.306618743250	294.341648617768	665.699268294777	739.539355745950	195.840289146521	597.933508318201	571.199821934160	50.290595082874	565.704640344046	744.355547472735	96.720220284915	605.657096491007	652.058008294414	39.837025982615	641.942037389542	860.355389936012	38.554433088896	639.179790972572	932.279551728553	36.657243748221	412.455666715151	1013.579176359595	37.540298516515	339.299031492689	1088.087904477515	106.582669884389	370.661291770994	1220.566746338420	66.104314983586	356.218118813589	708.318221056211	1081.180390070326	286.172832272129	671.734952353045	824.315645000160	324.359837183153	1152.862767338360	1172.941834646502	779.813334134175	1367.789724276646	1270.878864119948	685.419937594871	
